<svg width="70" height="70" viewBox="0 0 70 70" fill="none" xmlns="http://www.w3.org/2000/svg">
<path d="M19.12 9.64087C20.6242 8.13667 22.6643 7.29163 24.7916 7.29163H32.8124V23.3333H24.7916C22.6643 23.3333 20.6242 22.4882 19.12 20.984C17.6158 19.4798 16.7708 17.4397 16.7708 15.3125C16.7708 13.1852 17.6158 11.1451 19.12 9.64087Z" fill="white"/>
<path d="M45.2082 23.3333H37.1874V7.29163H45.2082C46.2616 7.29163 47.3046 7.49909 48.2777 7.90217C49.2508 8.30526 50.135 8.89607 50.8798 9.64087C51.6246 10.3857 52.2154 11.2699 52.6185 12.243C53.0216 13.2161 53.2291 14.2591 53.2291 15.3125C53.2291 16.3658 53.0216 17.4088 52.6185 18.3819C52.2154 19.355 51.6246 20.2392 50.8798 20.984C50.135 21.7288 49.2508 22.3196 48.2777 22.7227C47.3046 23.1258 46.2616 23.3333 45.2082 23.3333Z" fill="white"/>
<path d="M45.2082 27.7083C44.1549 27.7083 43.1119 27.9158 42.1388 28.3188C41.1657 28.7219 40.2815 29.3127 39.5367 30.0575C38.7919 30.8023 38.2011 31.6866 37.798 32.6597C37.3949 33.6328 37.1874 34.6758 37.1874 35.7291C37.1874 36.7824 37.3949 37.8254 37.798 38.7986C38.2011 39.7717 38.7919 40.6559 39.5367 41.4007C40.2815 42.1455 41.1657 42.7363 42.1388 43.1394C43.1119 43.5425 44.1549 43.7499 45.2082 43.7499C46.2616 43.7499 47.3046 43.5425 48.2777 43.1394C49.2508 42.7363 50.135 42.1455 50.8798 41.4007C51.6246 40.6559 52.2154 39.7717 52.6185 38.7986C53.0216 37.8254 53.2291 36.7824 53.2291 35.7291C53.2291 34.6758 53.0216 33.6328 52.6185 32.6597C52.2154 31.6865 51.6246 30.8023 50.8798 30.0575C50.135 29.3127 49.2508 28.7219 48.2777 28.3188C47.3046 27.9158 46.2616 27.7083 45.2082 27.7083Z" fill="white"/>
<path d="M19.12 50.4742C20.6242 48.97 22.6643 48.125 24.7916 48.125H32.8124V56.1458C32.8124 58.273 31.9674 60.3132 30.4632 61.8174C28.959 63.3216 26.9188 64.1666 24.7916 64.1666C22.6643 64.1666 20.6242 63.3216 19.12 61.8174C17.6158 60.3132 16.7708 58.273 16.7708 56.1458C16.7708 54.0185 17.6158 51.9784 19.12 50.4742Z" fill="white"/>
<path d="M24.7916 27.7083C22.6643 27.7083 20.6242 28.5533 19.12 30.0575C17.6158 31.5617 16.7708 33.6019 16.7708 35.7291C16.7708 37.8564 17.6158 39.8965 19.12 41.4007C20.6242 42.9049 22.6643 43.7499 24.7916 43.7499H32.8124V27.7083H24.7916Z" fill="white"/>
</svg>
